# xmcd
#
# Track frame offsets:
#	150
#	15909
#	31910
#	55127
#	76623
#	97821
#	120598
#	140424
#	160923
#	178684
#	190446
#
# Disc length: 2840 seconds
#
# Revision: 1
# Processed by: cddbd v1.5.2PL0 Copyright (c) Steve Scherf et al.
# Submitted via: audiograbber 1.83.01
#
DISCID=7b0b160b
DTITLE=Kelly Richie - Carry The Light
DYEAR=2008
DGENRE=
TTITLE0=Leave The Blues Behind
TTITLE1=I Want You
TTITLE2=What In The World
TTITLE3=Carry The Light
TTITLE4=Angela's Song
TTITLE5=Jericho Road
TTITLE6=Run Like Hell
TTITLE7=When All Is Said And Done
TTITLE8=No More Lies
TTITLE9=Lookin' For A Fight
TTITLE10=Time For A Change
EXTD=
EXTT0=
EXTT1=
EXTT2=
EXTT3=
EXTT4=
EXTT5=
EXTT6=
EXTT7=
EXTT8=
EXTT9=
EXTT10=
PLAYORDER=
